<svg xmlns="http://www.w3.org/2000/svg" viewBox="0 0 700 860" width="100%" style="max-width:700px" font-size="14">
<defs><marker id="arrow3" markerWidth="8" markerHeight="8" refX="4" refY="4" orient="auto"><path d="M0,0 L8,4 L0,8 z" fill="#999"/></marker></defs>
<rect x="0" y="0" width="700" height="860" rx="10" fill="#fdfcf8" stroke="#ccc"/>
<text x="350.0" y="30" text-anchor="middle" font-family='Helvetica, Arial, sans-serif' font-size="16" font-weight="bold" fill="#222">tile_checker: bit stacking for each of the two row patterns</text>
<text x="60" y="56" font-family='Helvetica, Arial, sans-serif' font-size="13" fill="#555">Rows 0,1,4,5: bitplane0=$CC=11001100, bitplane1=$33=00110011</text>
<text x="144.0" y="90" text-anchor="end" font-family='Helvetica, Arial, sans-serif' font-size="13" fill="#333">bitplane0 bits</text>
<rect x="158.0" y="70" width="45" height="26" fill="#eee" stroke="#999"/>
<text x="180.5" y="88" text-anchor="middle" font-family='Menlo, Consolas, monospace' font-size="13" fill="#222">1</text>
<rect x="206.0" y="70" width="45" height="26" fill="#eee" stroke="#999"/>
<text x="228.5" y="88" text-anchor="middle" font-family='Menlo, Consolas, monospace' font-size="13" fill="#222">1</text>
<rect x="254.0" y="70" width="45" height="26" fill="#eee" stroke="#999"/>
<text x="276.5" y="88" text-anchor="middle" font-family='Menlo, Consolas, monospace' font-size="13" fill="#222">0</text>
<rect x="302.0" y="70" width="45" height="26" fill="#eee" stroke="#999"/>
<text x="324.5" y="88" text-anchor="middle" font-family='Menlo, Consolas, monospace' font-size="13" fill="#222">0</text>
<rect x="350.0" y="70" width="45" height="26" fill="#eee" stroke="#999"/>
<text x="372.5" y="88" text-anchor="middle" font-family='Menlo, Consolas, monospace' font-size="13" fill="#222">1</text>
<rect x="398.0" y="70" width="45" height="26" fill="#eee" stroke="#999"/>
<text x="420.5" y="88" text-anchor="middle" font-family='Menlo, Consolas, monospace' font-size="13" fill="#222">1</text>
<rect x="446.0" y="70" width="45" height="26" fill="#eee" stroke="#999"/>
<text x="468.5" y="88" text-anchor="middle" font-family='Menlo, Consolas, monospace' font-size="13" fill="#222">0</text>
<rect x="494.0" y="70" width="45" height="26" fill="#eee" stroke="#999"/>
<text x="516.5" y="88" text-anchor="middle" font-family='Menlo, Consolas, monospace' font-size="13" fill="#222">0</text>
<text x="144.0" y="124" text-anchor="end" font-family='Helvetica, Arial, sans-serif' font-size="13" fill="#333">bitplane1 bits</text>
<rect x="158.0" y="104" width="45" height="26" fill="#eee" stroke="#999"/>
<text x="180.5" y="122" text-anchor="middle" font-family='Menlo, Consolas, monospace' font-size="13" fill="#222">0</text>
<rect x="206.0" y="104" width="45" height="26" fill="#eee" stroke="#999"/>
<text x="228.5" y="122" text-anchor="middle" font-family='Menlo, Consolas, monospace' font-size="13" fill="#222">0</text>
<rect x="254.0" y="104" width="45" height="26" fill="#eee" stroke="#999"/>
<text x="276.5" y="122" text-anchor="middle" font-family='Menlo, Consolas, monospace' font-size="13" fill="#222">1</text>
<rect x="302.0" y="104" width="45" height="26" fill="#eee" stroke="#999"/>
<text x="324.5" y="122" text-anchor="middle" font-family='Menlo, Consolas, monospace' font-size="13" fill="#222">1</text>
<rect x="350.0" y="104" width="45" height="26" fill="#eee" stroke="#999"/>
<text x="372.5" y="122" text-anchor="middle" font-family='Menlo, Consolas, monospace' font-size="13" fill="#222">0</text>
<rect x="398.0" y="104" width="45" height="26" fill="#eee" stroke="#999"/>
<text x="420.5" y="122" text-anchor="middle" font-family='Menlo, Consolas, monospace' font-size="13" fill="#222">0</text>
<rect x="446.0" y="104" width="45" height="26" fill="#eee" stroke="#999"/>
<text x="468.5" y="122" text-anchor="middle" font-family='Menlo, Consolas, monospace' font-size="13" fill="#222">1</text>
<rect x="494.0" y="104" width="45" height="26" fill="#eee" stroke="#999"/>
<text x="516.5" y="122" text-anchor="middle" font-family='Menlo, Consolas, monospace' font-size="13" fill="#222">1</text>
<line x1="180.5" y1="134" x2="180.5" y2="134" stroke="#999" stroke-width="1" marker-end="url(#arrow3)"/>
<line x1="228.5" y1="134" x2="228.5" y2="134" stroke="#999" stroke-width="1" marker-end="url(#arrow3)"/>
<line x1="276.5" y1="134" x2="276.5" y2="134" stroke="#999" stroke-width="1" marker-end="url(#arrow3)"/>
<line x1="324.5" y1="134" x2="324.5" y2="134" stroke="#999" stroke-width="1" marker-end="url(#arrow3)"/>
<line x1="372.5" y1="134" x2="372.5" y2="134" stroke="#999" stroke-width="1" marker-end="url(#arrow3)"/>
<line x1="420.5" y1="134" x2="420.5" y2="134" stroke="#999" stroke-width="1" marker-end="url(#arrow3)"/>
<line x1="468.5" y1="134" x2="468.5" y2="134" stroke="#999" stroke-width="1" marker-end="url(#arrow3)"/>
<line x1="516.5" y1="134" x2="516.5" y2="134" stroke="#999" stroke-width="1" marker-end="url(#arrow3)"/>
<rect x="158.0" y="138" width="45" height="26" fill="#d6362c" stroke="#999"/>
<text x="180.5" y="156" text-anchor="middle" font-family='Menlo, Consolas, monospace' font-size="13" font-weight="bold" fill="#fff">1</text>
<rect x="206.0" y="138" width="45" height="26" fill="#d6362c" stroke="#999"/>
<text x="228.5" y="156" text-anchor="middle" font-family='Menlo, Consolas, monospace' font-size="13" font-weight="bold" fill="#fff">1</text>
<rect x="254.0" y="138" width="45" height="26" fill="#3f9e3f" stroke="#999"/>
<text x="276.5" y="156" text-anchor="middle" font-family='Menlo, Consolas, monospace' font-size="13" font-weight="bold" fill="#fff">2</text>
<rect x="302.0" y="138" width="45" height="26" fill="#3f9e3f" stroke="#999"/>
<text x="324.5" y="156" text-anchor="middle" font-family='Menlo, Consolas, monospace' font-size="13" font-weight="bold" fill="#fff">2</text>
<rect x="350.0" y="138" width="45" height="26" fill="#d6362c" stroke="#999"/>
<text x="372.5" y="156" text-anchor="middle" font-family='Menlo, Consolas, monospace' font-size="13" font-weight="bold" fill="#fff">1</text>
<rect x="398.0" y="138" width="45" height="26" fill="#d6362c" stroke="#999"/>
<text x="420.5" y="156" text-anchor="middle" font-family='Menlo, Consolas, monospace' font-size="13" font-weight="bold" fill="#fff">1</text>
<rect x="446.0" y="138" width="45" height="26" fill="#3f9e3f" stroke="#999"/>
<text x="468.5" y="156" text-anchor="middle" font-family='Menlo, Consolas, monospace' font-size="13" font-weight="bold" fill="#fff">2</text>
<rect x="494.0" y="138" width="45" height="26" fill="#3f9e3f" stroke="#999"/>
<text x="516.5" y="156" text-anchor="middle" font-family='Menlo, Consolas, monospace' font-size="13" font-weight="bold" fill="#fff">2</text>
<text x="350.0" y="182" text-anchor="middle" font-family='Helvetica, Arial, sans-serif' font-size="13" fill="#333">= indices 1,1,2,2,1,1,2,2</text>
<text x="60" y="230" font-family='Helvetica, Arial, sans-serif' font-size="13" fill="#555">Rows 2,3,6,7: bitplane0=$33=00110011, bitplane1=$CC=11001100</text>
<text x="144.0" y="264" text-anchor="end" font-family='Helvetica, Arial, sans-serif' font-size="13" fill="#333">bitplane0 bits</text>
<rect x="158.0" y="244" width="45" height="26" fill="#eee" stroke="#999"/>
<text x="180.5" y="262" text-anchor="middle" font-family='Menlo, Consolas, monospace' font-size="13" fill="#222">0</text>
<rect x="206.0" y="244" width="45" height="26" fill="#eee" stroke="#999"/>
<text x="228.5" y="262" text-anchor="middle" font-family='Menlo, Consolas, monospace' font-size="13" fill="#222">0</text>
<rect x="254.0" y="244" width="45" height="26" fill="#eee" stroke="#999"/>
<text x="276.5" y="262" text-anchor="middle" font-family='Menlo, Consolas, monospace' font-size="13" fill="#222">1</text>
<rect x="302.0" y="244" width="45" height="26" fill="#eee" stroke="#999"/>
<text x="324.5" y="262" text-anchor="middle" font-family='Menlo, Consolas, monospace' font-size="13" fill="#222">1</text>
<rect x="350.0" y="244" width="45" height="26" fill="#eee" stroke="#999"/>
<text x="372.5" y="262" text-anchor="middle" font-family='Menlo, Consolas, monospace' font-size="13" fill="#222">0</text>
<rect x="398.0" y="244" width="45" height="26" fill="#eee" stroke="#999"/>
<text x="420.5" y="262" text-anchor="middle" font-family='Menlo, Consolas, monospace' font-size="13" fill="#222">0</text>
<rect x="446.0" y="244" width="45" height="26" fill="#eee" stroke="#999"/>
<text x="468.5" y="262" text-anchor="middle" font-family='Menlo, Consolas, monospace' font-size="13" fill="#222">1</text>
<rect x="494.0" y="244" width="45" height="26" fill="#eee" stroke="#999"/>
<text x="516.5" y="262" text-anchor="middle" font-family='Menlo, Consolas, monospace' font-size="13" fill="#222">1</text>
<text x="144.0" y="298" text-anchor="end" font-family='Helvetica, Arial, sans-serif' font-size="13" fill="#333">bitplane1 bits</text>
<rect x="158.0" y="278" width="45" height="26" fill="#eee" stroke="#999"/>
<text x="180.5" y="296" text-anchor="middle" font-family='Menlo, Consolas, monospace' font-size="13" fill="#222">1</text>
<rect x="206.0" y="278" width="45" height="26" fill="#eee" stroke="#999"/>
<text x="228.5" y="296" text-anchor="middle" font-family='Menlo, Consolas, monospace' font-size="13" fill="#222">1</text>
<rect x="254.0" y="278" width="45" height="26" fill="#eee" stroke="#999"/>
<text x="276.5" y="296" text-anchor="middle" font-family='Menlo, Consolas, monospace' font-size="13" fill="#222">0</text>
<rect x="302.0" y="278" width="45" height="26" fill="#eee" stroke="#999"/>
<text x="324.5" y="296" text-anchor="middle" font-family='Menlo, Consolas, monospace' font-size="13" fill="#222">0</text>
<rect x="350.0" y="278" width="45" height="26" fill="#eee" stroke="#999"/>
<text x="372.5" y="296" text-anchor="middle" font-family='Menlo, Consolas, monospace' font-size="13" fill="#222">1</text>
<rect x="398.0" y="278" width="45" height="26" fill="#eee" stroke="#999"/>
<text x="420.5" y="296" text-anchor="middle" font-family='Menlo, Consolas, monospace' font-size="13" fill="#222">1</text>
<rect x="446.0" y="278" width="45" height="26" fill="#eee" stroke="#999"/>
<text x="468.5" y="296" text-anchor="middle" font-family='Menlo, Consolas, monospace' font-size="13" fill="#222">0</text>
<rect x="494.0" y="278" width="45" height="26" fill="#eee" stroke="#999"/>
<text x="516.5" y="296" text-anchor="middle" font-family='Menlo, Consolas, monospace' font-size="13" fill="#222">0</text>
<line x1="180.5" y1="308" x2="180.5" y2="308" stroke="#999" stroke-width="1" marker-end="url(#arrow3)"/>
<line x1="228.5" y1="308" x2="228.5" y2="308" stroke="#999" stroke-width="1" marker-end="url(#arrow3)"/>
<line x1="276.5" y1="308" x2="276.5" y2="308" stroke="#999" stroke-width="1" marker-end="url(#arrow3)"/>
<line x1="324.5" y1="308" x2="324.5" y2="308" stroke="#999" stroke-width="1" marker-end="url(#arrow3)"/>
<line x1="372.5" y1="308" x2="372.5" y2="308" stroke="#999" stroke-width="1" marker-end="url(#arrow3)"/>
<line x1="420.5" y1="308" x2="420.5" y2="308" stroke="#999" stroke-width="1" marker-end="url(#arrow3)"/>
<line x1="468.5" y1="308" x2="468.5" y2="308" stroke="#999" stroke-width="1" marker-end="url(#arrow3)"/>
<line x1="516.5" y1="308" x2="516.5" y2="308" stroke="#999" stroke-width="1" marker-end="url(#arrow3)"/>
<rect x="158.0" y="312" width="45" height="26" fill="#3f9e3f" stroke="#999"/>
<text x="180.5" y="330" text-anchor="middle" font-family='Menlo, Consolas, monospace' font-size="13" font-weight="bold" fill="#fff">2</text>
<rect x="206.0" y="312" width="45" height="26" fill="#3f9e3f" stroke="#999"/>
<text x="228.5" y="330" text-anchor="middle" font-family='Menlo, Consolas, monospace' font-size="13" font-weight="bold" fill="#fff">2</text>
<rect x="254.0" y="312" width="45" height="26" fill="#d6362c" stroke="#999"/>
<text x="276.5" y="330" text-anchor="middle" font-family='Menlo, Consolas, monospace' font-size="13" font-weight="bold" fill="#fff">1</text>
<rect x="302.0" y="312" width="45" height="26" fill="#d6362c" stroke="#999"/>
<text x="324.5" y="330" text-anchor="middle" font-family='Menlo, Consolas, monospace' font-size="13" font-weight="bold" fill="#fff">1</text>
<rect x="350.0" y="312" width="45" height="26" fill="#3f9e3f" stroke="#999"/>
<text x="372.5" y="330" text-anchor="middle" font-family='Menlo, Consolas, monospace' font-size="13" font-weight="bold" fill="#fff">2</text>
<rect x="398.0" y="312" width="45" height="26" fill="#3f9e3f" stroke="#999"/>
<text x="420.5" y="330" text-anchor="middle" font-family='Menlo, Consolas, monospace' font-size="13" font-weight="bold" fill="#fff">2</text>
<rect x="446.0" y="312" width="45" height="26" fill="#d6362c" stroke="#999"/>
<text x="468.5" y="330" text-anchor="middle" font-family='Menlo, Consolas, monospace' font-size="13" font-weight="bold" fill="#fff">1</text>
<rect x="494.0" y="312" width="45" height="26" fill="#d6362c" stroke="#999"/>
<text x="516.5" y="330" text-anchor="middle" font-family='Menlo, Consolas, monospace' font-size="13" font-weight="bold" fill="#fff">1</text>
<text x="350.0" y="356" text-anchor="middle" font-family='Helvetica, Arial, sans-serif' font-size="13" fill="#333">= indices 2,2,1,1,2,2,1,1</text>
<line x1="20" y1="382" x2="680" y2="382" stroke="#ddd"/>
<text x="350.0" y="410" text-anchor="middle" font-family='Helvetica, Arial, sans-serif' font-size="15" font-weight="bold" fill="#222">The rendered tile (all 8 rows)</text>
<rect x="214.0" y="430" width="34" height="34" fill="#d6362c" stroke="#00000022"/>
<rect x="248.0" y="430" width="34" height="34" fill="#d6362c" stroke="#00000022"/>
<rect x="282.0" y="430" width="34" height="34" fill="#3f9e3f" stroke="#00000022"/>
<rect x="316.0" y="430" width="34" height="34" fill="#3f9e3f" stroke="#00000022"/>
<rect x="350.0" y="430" width="34" height="34" fill="#d6362c" stroke="#00000022"/>
<rect x="384.0" y="430" width="34" height="34" fill="#d6362c" stroke="#00000022"/>
<rect x="418.0" y="430" width="34" height="34" fill="#3f9e3f" stroke="#00000022"/>
<rect x="452.0" y="430" width="34" height="34" fill="#3f9e3f" stroke="#00000022"/>
<rect x="214.0" y="464" width="34" height="34" fill="#d6362c" stroke="#00000022"/>
<rect x="248.0" y="464" width="34" height="34" fill="#d6362c" stroke="#00000022"/>
<rect x="282.0" y="464" width="34" height="34" fill="#3f9e3f" stroke="#00000022"/>
<rect x="316.0" y="464" width="34" height="34" fill="#3f9e3f" stroke="#00000022"/>
<rect x="350.0" y="464" width="34" height="34" fill="#d6362c" stroke="#00000022"/>
<rect x="384.0" y="464" width="34" height="34" fill="#d6362c" stroke="#00000022"/>
<rect x="418.0" y="464" width="34" height="34" fill="#3f9e3f" stroke="#00000022"/>
<rect x="452.0" y="464" width="34" height="34" fill="#3f9e3f" stroke="#00000022"/>
<rect x="214.0" y="498" width="34" height="34" fill="#3f9e3f" stroke="#00000022"/>
<rect x="248.0" y="498" width="34" height="34" fill="#3f9e3f" stroke="#00000022"/>
<rect x="282.0" y="498" width="34" height="34" fill="#d6362c" stroke="#00000022"/>
<rect x="316.0" y="498" width="34" height="34" fill="#d6362c" stroke="#00000022"/>
<rect x="350.0" y="498" width="34" height="34" fill="#3f9e3f" stroke="#00000022"/>
<rect x="384.0" y="498" width="34" height="34" fill="#3f9e3f" stroke="#00000022"/>
<rect x="418.0" y="498" width="34" height="34" fill="#d6362c" stroke="#00000022"/>
<rect x="452.0" y="498" width="34" height="34" fill="#d6362c" stroke="#00000022"/>
<rect x="214.0" y="532" width="34" height="34" fill="#3f9e3f" stroke="#00000022"/>
<rect x="248.0" y="532" width="34" height="34" fill="#3f9e3f" stroke="#00000022"/>
<rect x="282.0" y="532" width="34" height="34" fill="#d6362c" stroke="#00000022"/>
<rect x="316.0" y="532" width="34" height="34" fill="#d6362c" stroke="#00000022"/>
<rect x="350.0" y="532" width="34" height="34" fill="#3f9e3f" stroke="#00000022"/>
<rect x="384.0" y="532" width="34" height="34" fill="#3f9e3f" stroke="#00000022"/>
<rect x="418.0" y="532" width="34" height="34" fill="#d6362c" stroke="#00000022"/>
<rect x="452.0" y="532" width="34" height="34" fill="#d6362c" stroke="#00000022"/>
<rect x="214.0" y="566" width="34" height="34" fill="#d6362c" stroke="#00000022"/>
<rect x="248.0" y="566" width="34" height="34" fill="#d6362c" stroke="#00000022"/>
<rect x="282.0" y="566" width="34" height="34" fill="#3f9e3f" stroke="#00000022"/>
<rect x="316.0" y="566" width="34" height="34" fill="#3f9e3f" stroke="#00000022"/>
<rect x="350.0" y="566" width="34" height="34" fill="#d6362c" stroke="#00000022"/>
<rect x="384.0" y="566" width="34" height="34" fill="#d6362c" stroke="#00000022"/>
<rect x="418.0" y="566" width="34" height="34" fill="#3f9e3f" stroke="#00000022"/>
<rect x="452.0" y="566" width="34" height="34" fill="#3f9e3f" stroke="#00000022"/>
<rect x="214.0" y="600" width="34" height="34" fill="#d6362c" stroke="#00000022"/>
<rect x="248.0" y="600" width="34" height="34" fill="#d6362c" stroke="#00000022"/>
<rect x="282.0" y="600" width="34" height="34" fill="#3f9e3f" stroke="#00000022"/>
<rect x="316.0" y="600" width="34" height="34" fill="#3f9e3f" stroke="#00000022"/>
<rect x="350.0" y="600" width="34" height="34" fill="#d6362c" stroke="#00000022"/>
<rect x="384.0" y="600" width="34" height="34" fill="#d6362c" stroke="#00000022"/>
<rect x="418.0" y="600" width="34" height="34" fill="#3f9e3f" stroke="#00000022"/>
<rect x="452.0" y="600" width="34" height="34" fill="#3f9e3f" stroke="#00000022"/>
<rect x="214.0" y="634" width="34" height="34" fill="#3f9e3f" stroke="#00000022"/>
<rect x="248.0" y="634" width="34" height="34" fill="#3f9e3f" stroke="#00000022"/>
<rect x="282.0" y="634" width="34" height="34" fill="#d6362c" stroke="#00000022"/>
<rect x="316.0" y="634" width="34" height="34" fill="#d6362c" stroke="#00000022"/>
<rect x="350.0" y="634" width="34" height="34" fill="#3f9e3f" stroke="#00000022"/>
<rect x="384.0" y="634" width="34" height="34" fill="#3f9e3f" stroke="#00000022"/>
<rect x="418.0" y="634" width="34" height="34" fill="#d6362c" stroke="#00000022"/>
<rect x="452.0" y="634" width="34" height="34" fill="#d6362c" stroke="#00000022"/>
<rect x="214.0" y="668" width="34" height="34" fill="#3f9e3f" stroke="#00000022"/>
<rect x="248.0" y="668" width="34" height="34" fill="#3f9e3f" stroke="#00000022"/>
<rect x="282.0" y="668" width="34" height="34" fill="#d6362c" stroke="#00000022"/>
<rect x="316.0" y="668" width="34" height="34" fill="#d6362c" stroke="#00000022"/>
<rect x="350.0" y="668" width="34" height="34" fill="#3f9e3f" stroke="#00000022"/>
<rect x="384.0" y="668" width="34" height="34" fill="#3f9e3f" stroke="#00000022"/>
<rect x="418.0" y="668" width="34" height="34" fill="#d6362c" stroke="#00000022"/>
<rect x="452.0" y="668" width="34" height="34" fill="#d6362c" stroke="#00000022"/>
<rect x="214.0" y="430" width="272" height="272" fill="none" stroke="#333" stroke-width="1.5"/>
<rect x="214.0" y="732" width="18" height="18" fill="#d6362c"/>
<text x="240.0" y="746" font-family='Helvetica, Arial, sans-serif' font-size="13" fill="#333">palette index 1 = red</text>
<rect x="214.0" y="758" width="18" height="18" fill="#3f9e3f"/>
<text x="240.0" y="772" font-family='Helvetica, Arial, sans-serif' font-size="13" fill="#333">palette index 2 = green</text>
</svg>